<svg width="24" height="25" viewBox="0 0 24 25" fill="none" xmlns="http://www.w3.org/2000/svg">
<path fill-rule="evenodd" clip-rule="evenodd" d="M11.9633 0.847656C5.3578 0.847656 0 6.17664 0 12.7466C0 18.0026 3.44954 22.4556 8.14679 24.0616C8.73394 24.1346 8.95413 23.7696 8.95413 23.4776C8.95413 23.1856 8.95413 22.4556 8.95413 21.4336C5.65138 22.1636 4.91743 19.8276 4.91743 19.8276C4.40367 18.4406 3.59633 18.0756 3.59633 18.0756C2.49541 17.3456 3.66972 17.3456 3.66972 17.3456C4.84404 17.4186 5.50459 18.5866 5.50459 18.5866C6.6055 20.4116 8.29358 19.9006 8.95413 19.6086C9.02752 18.8056 9.3945 18.2946 9.68807 18.0026C7.04587 17.7106 4.25688 16.6886 4.25688 12.0896C4.25688 10.7756 4.69725 9.75364 5.50459 8.87764C5.43119 8.65864 4.99083 7.41764 5.65138 5.81164C5.65138 5.81164 6.6789 5.51965 8.95413 7.05264C9.90826 6.76064 10.9358 6.68764 11.9633 6.68764C12.9908 6.68764 14.0183 6.83364 14.9725 7.05264C17.2477 5.51965 18.2752 5.81164 18.2752 5.81164C18.9358 7.41764 18.4954 8.65864 18.422 8.95064C19.156 9.75364 19.6697 10.8486 19.6697 12.1626C19.6697 16.7616 16.8807 17.7106 14.2385 18.0026C14.6789 18.3676 15.0459 19.0976 15.0459 20.1926C15.0459 21.7986 15.0459 23.0396 15.0459 23.4776C15.0459 23.7696 15.2661 24.1346 15.8532 24.0616C20.6239 22.4556 24 18.0026 24 12.7466C23.9266 6.17664 18.5688 0.847656 11.9633 0.847656Z" fill="#282828"/>
</svg>
